<svg width="40" height="40" viewBox="0 0 40 40" fill="none" xmlns="http://www.w3.org/2000/svg">
<g filter="url(#filter0_di_539_46)">
<rect x="4" y="2" width="32" height="32" rx="4" fill="black" fill-opacity="0.2" shape-rendering="crispEdges"/>
<path d="M16.25 27C17.0784 27 17.75 26.3284 17.75 25.5C17.75 24.6716 17.0784 24 16.25 24C15.4216 24 14.75 24.6716 14.75 25.5C14.75 26.3284 15.4216 27 16.25 27Z" fill="#C3B97F"/>
<path d="M26.75 27C27.5784 27 28.25 26.3284 28.25 25.5C28.25 24.6716 27.5784 24 26.75 24C25.9216 24 25.25 24.6716 25.25 25.5C25.25 26.3284 25.9216 27 26.75 27Z" fill="#C3B97F"/>
<path d="M29.7461 13.6149C29.6416 13.4882 29.51 13.3863 29.3608 13.3163C29.2115 13.2464 29.0485 13.2102 28.8834 13.2105H14.7362L14.4512 11.6088C14.4209 11.4382 14.3308 11.2837 14.1968 11.1723C14.0628 11.061 13.8935 11 13.7187 11H10.7437C10.5465 11 10.3573 11.0776 10.2178 11.2158C10.0784 11.354 10 11.5414 10 11.7368C10 11.9323 10.0784 12.1197 10.2178 12.2579C10.3573 12.3961 10.5465 12.4737 10.7437 12.4737H13.0949L15.2173 24.3912C15.2477 24.5618 15.3378 24.7163 15.4717 24.8277C15.6057 24.939 15.775 25 15.9499 25H27.8496C28.0468 25 28.236 24.9224 28.3755 24.7842C28.515 24.646 28.5933 24.4586 28.5933 24.2632C28.5933 24.0677 28.515 23.8803 28.3755 23.7421C28.236 23.6039 28.0468 23.5263 27.8496 23.5263H16.5737L16.3115 22.0526H27.5447C27.8026 22.0523 28.0525 21.9637 28.252 21.8018C28.4516 21.6399 28.5886 21.4147 28.6398 21.1643L29.9785 14.5327C30.0108 14.3722 30.0067 14.2066 29.9665 14.0479C29.9263 13.8892 29.851 13.7413 29.7461 13.6149Z" fill="#C3B97F"/>
</g>
<defs>
<filter id="filter0_di_539_46" x="0" y="0" width="40" height="40" filterUnits="userSpaceOnUse" color-interpolation-filters="sRGB">
<feFlood flood-opacity="0" result="BackgroundImageFix"/>
<feColorMatrix in="SourceAlpha" type="matrix" values="0 0 0 0 0 0 0 0 0 0 0 0 0 0 0 0 0 0 127 0" result="hardAlpha"/>
<feOffset dy="2"/>
<feGaussianBlur stdDeviation="2"/>
<feComposite in2="hardAlpha" operator="out"/>
<feColorMatrix type="matrix" values="0 0 0 0 0 0 0 0 0 0 0 0 0 0 0 0 0 0 0.2 0"/>
<feBlend mode="normal" in2="BackgroundImageFix" result="effect1_dropShadow_539_46"/>
<feBlend mode="normal" in="SourceGraphic" in2="effect1_dropShadow_539_46" result="shape"/>
<feColorMatrix in="SourceAlpha" type="matrix" values="0 0 0 0 0 0 0 0 0 0 0 0 0 0 0 0 0 0 127 0" result="hardAlpha"/>
<feMorphology radius="2" operator="dilate" in="SourceAlpha" result="effect2_innerShadow_539_46"/>
<feOffset dy="2"/>
<feGaussianBlur stdDeviation="2"/>
<feComposite in2="hardAlpha" operator="arithmetic" k2="-1" k3="1"/>
<feColorMatrix type="matrix" values="0 0 0 0 0.87451 0 0 0 0 0.85098 0 0 0 0 0.85098 0 0 0 0.4 0"/>
<feBlend mode="normal" in2="shape" result="effect2_innerShadow_539_46"/>
</filter>
</defs>
</svg>
